<svg width="274" height="253" viewBox="0 0 274 253" fill="none" xmlns="http://www.w3.org/2000/svg">
<path d="M267.733 159.051L221.442 109.231L195.45 103.75M169.458 98.2702L139.447 27.25L132.049 87.0644M169.458 98.2702L139.442 -11L132.049 87.0644M169.458 98.2702L195.45 103.75M132.049 87.0644L131.022 89.3338M109.564 234.009L115.995 203.37M115.995 203.37L122.426 172.73L104.928 147.039L118.488 117.052M115.995 203.37L134.786 224.322L139.442 251.259M118.488 117.052L67.0008 140.73L46.4967 163.245L40.9987 179.267M118.488 117.052L124.755 103.193M35.5008 195.29L40.9987 179.267M40.9987 179.267L13.8681 178.759M131.022 89.3338L65.0152 99.1695L31.721 138.837L3.49858 153.719M131.022 89.3338L124.755 103.193M124.755 103.193L151.87 141.232L161.398 195.23L176.986 204.23L174.615 221.337M195.45 103.75L210.499 147.039L228.999 168L213.499 197.5" stroke="url(#paint0_linear_82_942)" stroke-width="15"/>
<defs>
<linearGradient id="paint0_linear_82_942" x1="132.999" y1="4.53833e-05" x2="134.999" y2="254" gradientUnits="userSpaceOnUse">
<stop stop-color="#725A4D"/>
<stop offset="1" stop-color="#482F2F"/>
</linearGradient>
</defs>
</svg>
